<svg class="animated" id="freepik_stories-buffer" xmlns="http://www.w3.org/2000/svg" viewBox="0 0 500 500" version="1.1" xmlns:xlink="http://www.w3.org/1999/xlink" xmlns:svgjs="http://svgjs.com/svgjs">
    <style>svg#freepik_stories-buffer:not(.animated) .animable {opacity: 0;}svg#freepik_stories-buffer.animated #freepik--background-complete--inject-144 {animation: 1s 1 forwards cubic-bezier(.36,-0.01,.5,1.38) zoomIn;animation-delay: 0s;}svg#freepik_stories-buffer.animated #freepik--Shadow--inject-144 {animation: 1s 1 forwards cubic-bezier(.36,-0.01,.5,1.38) zoomOut;animation-delay: 0s;}svg#freepik_stories-buffer.animated #freepik--Plant--inject-144 {animation: 1s 1 forwards cubic-bezier(.36,-0.01,.5,1.38) fadeIn;animation-delay: 0s;}svg#freepik_stories-buffer.animated #freepik--Device--inject-144 {animation: 1s 1 forwards cubic-bezier(.36,-0.01,.5,1.38) slideLeft;animation-delay: 0s;}svg#freepik_stories-buffer.animated #freepik--Character--inject-144 {animation: 1s 1 forwards cubic-bezier(.36,-0.01,.5,1.38) slideRight;animation-delay: 0s;}            @keyframes zoomIn {                0% {                    opacity: 0;                    transform: scale(0.5);                }                100% {                    opacity: 1;                    transform: scale(1);                }            }                    @keyframes zoomOut {                0% {                    opacity: 0;                    transform: scale(1.5);                }                100% {                    opacity: 1;                    transform: scale(1);                }            }                    @keyframes fadeIn {                0% {                    opacity: 0;                }                100% {                    opacity: 1;                }            }                    @keyframes slideLeft {                0% {                    opacity: 0;                    transform: translateX(-30px);                }                100% {                    opacity: 1;                    transform: translateX(0);                }            }                    @keyframes slideRight {                0% {                    opacity: 0;                    transform: translateX(30px);                }                100% {                    opacity: 1;                    transform: translateX(0);                }            }        </style>
    <g id="freepik--background-complete--inject-144" style="transform-origin: 250px 228.23px 0px;" class="animable">
        <rect y="382.4" width="500" height="0.25" style="fill: rgb(235, 235, 235); transform-origin: 250px 382.525px 0px;" id="elsb69jw3syeg" class="animable"></rect>
        <rect x="416.78" y="398.49" width="33.12" height="0.25" style="fill: rgb(235, 235, 235); transform-origin: 433.34px 398.615px 0px;" id="elqziccbmyrl" class="animable"></rect>
        <rect x="322.53" y="401.21" width="8.69" height="0.25" style="fill: rgb(235, 235, 235); transform-origin: 326.875px 401.335px 0px;" id="elzcatd1t1y7" class="animable"></rect>
        <rect x="396.59" y="389.21" width="19.19" height="0.25" style="fill: rgb(235, 235, 235); transform-origin: 406.185px 389.335px 0px;" id="elzwydihskar" class="animable"></rect>
        <rect x="52.46" y="390.89" width="43.19" height="0.25" style="fill: rgb(235, 235, 235); transform-origin: 74.055px 391.015px 0px;" id="el12bg7f875lcr" class="animable"></rect>
        <rect x="104.56" y="390.89" width="6.33" height="0.25" style="fill: rgb(235, 235, 235); transform-origin: 107.725px 391.015px 0px;" id="el89ule5sispd" class="animable"></rect>
        <rect x="131.47" y="395.11" width="93.68" height="0.25" style="fill: rgb(235, 235, 235); transform-origin: 178.31px 395.235px 0px;" id="el6g33545z0ry" class="animable"></rect>
        <path d="M237,337.8H43.91a5.71,5.71,0,0,1-5.7-5.71V60.66A5.71,5.71,0,0,1,43.91,55H237a5.71,5.71,0,0,1,5.71,5.71V332.09A5.71,5.71,0,0,1,237,337.8ZM43.91,55.2a5.46,5.46,0,0,0-5.45,5.46V332.09a5.46,5.46,0,0,0,5.45,5.46H237a5.47,5.47,0,0,0,5.46-5.46V60.66A5.47,5.47,0,0,0,237,55.2Z" style="fill: rgb(235, 235, 235); transform-origin: 140.46px 196.4px 0px;" id="el4znuizy5tm3" class="animable"></path>
        <path d="M453.31,337.8H260.21a5.72,5.72,0,0,1-5.71-5.71V60.66A5.72,5.72,0,0,1,260.21,55h193.1A5.71,5.71,0,0,1,459,60.66V332.09A5.71,5.71,0,0,1,453.31,337.8ZM260.21,55.2a5.47,5.47,0,0,0-5.46,5.46V332.09a5.47,5.47,0,0,0,5.46,5.46h193.1a5.47,5.47,0,0,0,5.46-5.46V60.66a5.47,5.47,0,0,0-5.46-5.46Z" style="fill: rgb(235, 235, 235); transform-origin: 356.75px 196.4px 0px;" id="elhj8dw3ljym" class="animable"></path>
        <path d="M55.91,260.81H164.37a8.83,8.83,0,0,1,8.83,8.83l12,76.47H59.08l-12-76.47A8.84,8.84,0,0,1,55.91,260.81Z" style="fill: rgb(235, 235, 235); transform-origin: 116.14px 303.46px 0px;" id="elsqskq8jx8jq" class="animable"></path>
        <path d="M184.89,290.38l-.14-.39h42v93h-52V301.14A10.62,10.62,0,0,1,184.89,290.38Z" style="fill: rgb(224, 224, 224); transform-origin: 200.749px 336.49px 0px;" id="elavoxeb3psmm" class="animable"></path>
        <path d="M227.2,290.36h0A10.77,10.77,0,0,1,238,301.14V383H216.42V301.14A10.77,10.77,0,0,1,227.2,290.36Z" style="fill: rgb(240, 240, 240); transform-origin: 227.21px 336.68px 0px;" id="elny3axvs3bni" class="animable"></path>
        <path d="M63.89,290.38l-.14-.39h42v93h-52V301.14A10.62,10.62,0,0,1,63.89,290.38Z" style="fill: rgb(224, 224, 224); transform-origin: 79.7495px 336.49px 0px;" id="ellzgiw9h3p2g" class="animable"></path>
        <g id="elx6ydy44e8c">
            <rect x="116.97" y="317.49" width="92.41" height="65.5" style="fill: rgb(224, 224, 224); transform-origin: 163.175px 350.24px 0px; transform: rotate(180deg);" class="animable"></rect>
        </g>
        <g id="elan9scw2498t">
            <path d="M110.77,310.77h104a0,0,0,0,1,0,0v22.71a0,0,0,0,1,0,0h-104a11.36,11.36,0,0,1-11.36-11.36v0A11.36,11.36,0,0,1,110.77,310.77Z" style="fill: rgb(245, 245, 245); transform-origin: 157.09px 322.125px 0px; transform: rotate(-180deg);" class="animable"></path>
        </g>
        <path d="M106.2,290.36h0A10.77,10.77,0,0,1,117,301.14V383H95.42V301.14A10.77,10.77,0,0,1,106.2,290.36Z" style="fill: rgb(240, 240, 240); transform-origin: 106.21px 336.68px 0px;" id="elm2vl4a5eavd" class="animable"></path>
        <path d="M76.75,347.24H59.08l-12-77.6a8.84,8.84,0,0,1,8.84-8.83h0a8.83,8.83,0,0,1,8.83,8.83Z" style="fill: rgb(224, 224, 224); transform-origin: 61.915px 304.025px 0px;" id="elyqj643rqpb" class="animable"></path>
        <polygon points="391.69 382.99 414.04 234.49 414.04 382.99 420.04 382.99 420.04 233.56 442.41 382.99 448.84 382.99 420.83 195.95 420.04 196.07 420.04 189.99 414.04 189.99 414.04 196.05 413.21 195.95 385.14 382.99 391.69 382.99" style="fill: rgb(233, 233, 233); transform-origin: 416.99px 286.49px 0px;" id="el82ycrergeum" class="animable"></polygon>
        <polygon points="447.78 216.69 385.97 216.69 390.97 165.04 442.78 165.04 447.78 216.69" style="fill: rgb(244, 244, 244); transform-origin: 416.875px 190.865px 0px;" id="elvxzezq1oh4q" class="animable"></polygon>
        <g id="elmai52uth1f">
            <circle cx="102.28" cy="104.11" r="23.55" style="fill: rgb(224, 224, 224); transform-origin: 102.28px 104.11px 0px; transform: rotate(-24.56deg);" class="animable"></circle>
        </g>
        <g id="elmduatboc9d">
            <circle cx="102.28" cy="104.11" r="20.03" style="fill: rgb(240, 240, 240); transform-origin: 102.28px 104.11px 0px; transform: rotate(-21.37deg);" class="animable"></circle>
        </g>
        <polyline points="103.22 90.37 103.22 104.37 112.5 99.12" style="fill: rgb(240, 240, 240); transform-origin: 107.86px 97.37px 0px;" id="elxg2r1tmej3r" class="animable"></polyline>
        <path d="M103.22,105.37a1,1,0,0,1-1-1v-14a1,1,0,0,1,2,0v12.28l7.78-4.4a1,1,0,1,1,1,1.74l-9.28,5.25A1,1,0,0,1,103.22,105.37Z" style="fill: rgb(224, 224, 224); transform-origin: 107.862px 97.37px 0px;" id="elvzxxle1no7o" class="animable"></path>
    </g>
    <g id="freepik--Shadow--inject-144" style="transform-origin: 250px 416.24px 0px;" class="animable">
        <ellipse id="freepik--path--inject-144" cx="250" cy="416.24" rx="193.89" ry="11.32" style="fill: rgb(245, 245, 245); transform-origin: 250px 416.24px 0px;" class="animable"></ellipse>
    </g>
    <g id="freepik--Plant--inject-144" style="transform-origin: 91.1996px 373.679px 0px;" class="animable">
        <path d="M91.27,384.65c-.16-1-3.66-25.18,3.35-33.51a7.63,7.63,0,0,1,5.83-2.87c14.15-.33,16.08,11,16.1,11.15l-1.67.26c-.06-.41-1.74-10-14.39-9.72a5.87,5.87,0,0,0-4.57,2.26c-6.53,7.76-3,31.93-3,32.18Z" style="fill: rgb(146, 227, 169); transform-origin: 103.403px 366.456px 0px;" id="eloc448ain7q" class="animable"></path>
        <path d="M90.41,383.54l-1.69-.05c0-.22.56-22.25-10.29-26.8-10.64-4.46-15.42,4.71-15.62,5.1L61.3,361c.05-.11,5.67-11,17.78-5.9C91,360.13,90.44,382.59,90.41,383.54Z" style="fill: rgb(146, 227, 169); transform-origin: 75.861px 368.641px 0px;" id="elm7sm9zlsew" class="animable"></path>
        <path d="M90.46,385.27c0-.35-.1-35.19-6.9-45.37-6.52-9.79-17-5.18-17.48-5l-.7-1.54C65.5,333.33,77.64,328,85,339c7.07,10.61,7.18,44.86,7.18,46.31Z" style="fill: rgb(146, 227, 169); transform-origin: 78.78px 358.676px 0px;" id="elzu0g22e7on" class="animable"></path>
        <path d="M102.47,349.11s-6.18,2.27-4.34,7.65S119.51,371,119.51,371s8.18-7.5.66-19.7S102.64,345.26,102.47,349.11Z" style="fill: rgb(146, 227, 169); transform-origin: 110.569px 357.549px 0px;" id="elf6nrl1s6dks" class="animable"></path>
        <path d="M83.26,338.06s4.39-.47,4-3.14-17.05-9.55-26.91,1.57c0,0,6.31,10.84,15.43,11S83.26,338.06,83.26,338.06Z" style="fill: rgb(146, 227, 169); transform-origin: 73.8173px 338.925px 0px;" id="eleoirn64t36j" class="animable"></path>
        <path d="M78.76,355.91s3-2.44-.24-3.64-19.31-.85-19.47,15c0,0,18.67,3.11,21-2.94S78.76,355.91,78.76,355.91Z" style="fill: rgb(146, 227, 169); transform-origin: 69.9409px 359.958px 0px;" id="eliu0tr25s4ca" class="animable"></path>
        <g id="elsl7wwv4sd2">
            <path d="M102.47,349.11s-6.18,2.27-4.34,7.65S119.51,371,119.51,371s8.18-7.5.66-19.7S102.64,345.26,102.47,349.11Z" style="fill: rgb(255, 255, 255); opacity: 0.2; isolation: isolate; transform-origin: 110.569px 357.549px 0px;" class="animable"></path>
        </g>
        <g id="eljr59nwuu1c">
            <path d="M83.26,338.06s4.39-.47,4-3.14-17.05-9.55-26.91,1.57c0,0,6.31,10.84,15.43,11S83.26,338.06,83.26,338.06Z" style="fill: rgb(255, 255, 255); opacity: 0.2; isolation: isolate; transform-origin: 73.8173px 338.925px 0px;" class="animable"></path>
        </g>
        <g id="eldczy3i590xh">
            <path d="M78.76,355.91s3-2.44-.24-3.64-19.31-.85-19.47,15c0,0,18.67,3.11,21-2.94S78.76,355.91,78.76,355.91Z" style="fill: rgb(255, 255, 255); opacity: 0.2; isolation: isolate; transform-origin: 69.9409px 359.958px 0px;" class="animable"></path>
        </g>
        <polygon points="105.79 417 76.81 417 73.69 385.27 108.92 385.27 105.79 417" style="fill: rgb(146, 227, 169); transform-origin: 91.305px 401.135px 0px;" id="el99pm79w1ju" class="animable"></polygon>
        <g id="elt1a3usble2">
            <polygon points="105.79 417 76.81 417 73.69 385.27 108.92 385.27 105.79 417" style="fill: rgb(255, 255, 255); opacity: 0.5; isolation: isolate; transform-origin: 91.305px 401.135px 0px;" class="animable"></polygon>
        </g>
        <rect x="72.14" y="381.77" width="38.32" height="7" style="fill: rgb(146, 227, 169); transform-origin: 91.3px 385.27px 0px;" id="ele836wdvijd9" class="animable"></rect>
        <g id="elw61sw64keth">
            <rect x="72.14" y="381.77" width="38.32" height="7" style="fill: rgb(255, 255, 255); opacity: 0.2; isolation: isolate; transform-origin: 91.3px 385.27px 0px;" class="animable"></rect>
        </g>
    </g>
    <g id="freepik--Device--inject-144" style="transform-origin: 306.69px 247.265px 0px;" class="animable">
        <rect x="212.32" y="77.53" width="188.74" height="339.47" rx="10.4" style="fill: rgb(38, 50, 56); transform-origin: 306.69px 247.265px 0px;" id="elgd710xipaov" class="animable"></rect>
        <path d="M394.75,88.9V405a4.62,4.62,0,0,1-4.69,4.62H222.94a4.14,4.14,0,0,1-4.19-4.24V88.52a3.73,3.73,0,0,1,3.59-3.88h41.78a2.94,2.94,0,0,1,2.69,1.88l1.73,4.26a2.94,2.94,0,0,0,2.69,1.86h71.13a2.91,2.91,0,0,0,2.69-1.83l1.73-4.28a3,3,0,0,1,2.69-1.89h41.18A4.22,4.22,0,0,1,394.75,88.9Z" style="fill: rgb(146, 227, 169); transform-origin: 306.749px 247.13px 0px;" id="elrmdejzeh4tm" class="animable"></path>
        <g id="eld22ctqegl7">
            <rect x="218.75" y="104.39" width="176" height="257.25" style="fill: rgb(255, 255, 255); opacity: 0.3; isolation: isolate; transform-origin: 306.75px 233.015px 0px;" class="animable"></rect>
        </g>
        <g id="el25ejrc5xa4">
            <circle cx="302.76" cy="85.06" r="2.42" style="fill: rgb(255, 255, 255); opacity: 0.6; isolation: isolate; transform-origin: 302.76px 85.06px 0px;" class="animable"></circle>
        </g>
        <g id="el2td9qyc8co9">
            <path d="M310.07,85.06a1.55,1.55,0,1,1-1.55-1.55A1.54,1.54,0,0,1,310.07,85.06Z" style="fill: rgb(255, 255, 255); opacity: 0.6; isolation: isolate; transform-origin: 308.52px 85.06px 0px;" class="animable"></path>
        </g>
        <g id="el327v44gp30y">
            <rect x="238.6" y="94.48" width="2.17" height="2.9" style="fill: rgb(255, 255, 255); opacity: 0.6; isolation: isolate; transform-origin: 239.685px 95.93px 0px; transform: rotate(180deg);" class="animable"></rect>
        </g>
        <g id="el4yw20yg3k1k">
            <rect x="235.06" y="93.51" width="2.17" height="3.86" style="fill: rgb(255, 255, 255); opacity: 0.6; isolation: isolate; transform-origin: 236.145px 95.44px 0px; transform: rotate(180deg);" class="animable"></rect>
        </g>
        <g id="el9esn0cn3mzi">
            <rect x="231.51" y="92.55" width="2.17" height="4.83" style="fill: rgb(255, 255, 255); opacity: 0.6; isolation: isolate; transform-origin: 232.595px 94.965px 0px; transform: rotate(180deg);" class="animable"></rect>
        </g>
        <g id="elxd7q9r9zyke">
            <rect x="227.97" y="91.58" width="2.17" height="5.8" style="fill: rgb(255, 255, 255); opacity: 0.6; isolation: isolate; transform-origin: 229.055px 94.48px 0px; transform: rotate(180deg);" class="animable"></rect>
        </g>
        <g id="elme2w2swpkoq">
            <rect x="374" y="93.42" width="1.29" height="2.9" style="fill: rgb(255, 255, 255); opacity: 0.6; isolation: isolate; transform-origin: 374.645px 94.87px 0px;" class="animable"></rect>
        </g>
        <g id="elu0yv3mg3o2h">
            <rect x="376.17" y="92.37" width="10.27" height="5.01" style="fill: rgb(255, 255, 255); opacity: 0.6; isolation: isolate; transform-origin: 381.305px 94.875px 0px; transform: rotate(180deg);" class="animable"></rect>
        </g>
        <g id="el65t35s50knh">
            <path d="M282.71,158.78a27.37,27.37,0,1,1-27.37-27.37A27.33,27.33,0,0,1,282.71,158.78Z" style="fill: rgb(255, 255, 255); opacity: 0.4; isolation: isolate; transform-origin: 255.34px 158.78px 0px;" class="animable"></path>
        </g>
        <g id="eloveo0rr71ah">
            <path d="M269.41,182.25a27.42,27.42,0,0,1-27,.68c.35-.06.69-.1,1-.14h0l-.06,0c2.62-2.87,2.5-8.81,1.68-14.07a9.55,9.55,0,0,1-.52-1,19.43,19.43,0,0,1-2.39-5.55,7.34,7.34,0,0,1-2.41-3.63,3.51,3.51,0,0,1,1.21-3.89c-.07-.81-.11-1.64-.12-2.47h0s-3.3-3-1.24-4.55,2.52-3.86,3.78-6.53,6.87-6.13,12.82-2.08c0,0,3.16-1.08,4.56-.29a8.39,8.39,0,0,1,2.51,2.87,2.11,2.11,0,0,1,3.2-.1c1.62,1.68.34,7.71,1.72,9.19s-1.22,3.07-1.65,3.35a15,15,0,0,1-.71,2.39,27.73,27.73,0,0,1-2.1,10.9,11.2,11.2,0,0,1-.52,1,10.92,10.92,0,0,1-6.25,5.09,10.39,10.39,0,0,1-1.9.41,9.47,9.47,0,0,0,.37,3.44c.69,2.06,2.37,3.67,5.81,4.24a.13.13,0,0,1,0,.05c.72,0,1.44.08,2.15.08,1.86.11,3.63.3,5.16.49A6.18,6.18,0,0,1,269.41,182.25Z" style="opacity: 0.3; isolation: isolate; transform-origin: 254.147px 161.66px 0px;" class="animable"></path>
        </g>
        <rect x="271.58" y="173.94" width="11.88" height="11.88" rx="2.37" style="fill: rgb(146, 227, 169); transform-origin: 277.52px 179.88px 0px;" id="el7dn5cjvmkpq" class="animable"></rect>
        <g id="el5p00cqq6hia">
            <path d="M280.46,179.89a2.94,2.94,0,1,1-2.94-2.95A2.94,2.94,0,0,1,280.46,179.89Z" style="opacity: 0.3; isolation: isolate; transform-origin: 277.52px 179.88px 0px;" class="animable"></path>
        </g>
        <g id="el7rl38o6d2qb">
            <path d="M344.75,144H306.61a3.85,3.85,0,0,1-3.85-3.85h0a3.86,3.86,0,0,1,3.85-3.85h38.14a3.86,3.86,0,0,1,3.85,3.85h0A3.85,3.85,0,0,1,344.75,144Z" style="fill: rgb(255, 255, 255); opacity: 0.5; isolation: isolate; transform-origin: 325.68px 140.15px 0px;" class="animable"></path>
        </g>
        <g id="elk3ebrz3kpk">
            <path d="M365.66,158.77H305.07a2.31,2.31,0,0,1-2.31-2.3h0a2.31,2.31,0,0,1,2.31-2.31h60.59a2.31,2.31,0,0,1,2.31,2.31h0A2.31,2.31,0,0,1,365.66,158.77Z" style="fill: rgb(255, 255, 255); opacity: 0.5; isolation: isolate; transform-origin: 335.365px 156.465px 0px;" class="animable"></path>
        </g>
        <g id="elnkgx46yprza">
            <path d="M345.66,168.77H305.07a2.31,2.31,0,0,1-2.31-2.3h0a2.31,2.31,0,0,1,2.31-2.31h40.59a2.31,2.31,0,0,1,2.31,2.31h0A2.31,2.31,0,0,1,345.66,168.77Z" style="fill: rgb(255, 255, 255); opacity: 0.5; isolation: isolate; transform-origin: 325.365px 166.465px 0px;" class="animable"></path>
        </g>
        <g id="elyn9ok65oued">
            <rect x="292.48" y="391.91" width="28.09" height="10.08" rx="2.36" style="opacity: 0.3; isolation: isolate; transform-origin: 306.525px 396.95px 0px;" class="animable"></rect>
        </g>
        <g id="elw5knmetm2md">
            <rect x="253.92" y="370.5" width="105.2" height="4.62" rx="2.31" style="fill: rgb(255, 255, 255); opacity: 0.5; isolation: isolate; transform-origin: 306.52px 372.81px 0px;" class="animable"></rect>
        </g>
        <g id="ely3re3k8qycn">
            <rect x="268.92" y="380.5" width="75.2" height="4.62" rx="2.31" style="fill: rgb(255, 255, 255); opacity: 0.5; isolation: isolate; transform-origin: 306.52px 382.81px 0px;" class="animable"></rect>
        </g>
        <g id="eluzejn73oti">
            <rect x="225.88" y="191.23" width="161.29" height="51.5" style="fill: rgb(255, 255, 255); opacity: 0.4; isolation: isolate; transform-origin: 306.525px 216.98px 0px;" class="animable"></rect>
        </g>
        <g id="elp7j5qjq50xr">
            <path d="M333.4,200.78H303.5a2.19,2.19,0,0,1-2.19-2.19h0a2.19,2.19,0,0,1,2.19-2.19h29.9a2.2,2.2,0,0,1,2.2,2.19h0A2.2,2.2,0,0,1,333.4,200.78Z" style="fill: rgb(255, 255, 255); opacity: 0.5; isolation: isolate; transform-origin: 318.455px 198.59px 0px;" class="animable"></path>
        </g>
        <g id="elpvcgmmb6rrc">
            <path d="M361.4,209.78H303.5a2.19,2.19,0,0,1-2.19-2.19h0a2.19,2.19,0,0,1,2.19-2.19h57.9a2.2,2.2,0,0,1,2.2,2.19h0A2.2,2.2,0,0,1,361.4,209.78Z" style="fill: rgb(255, 255, 255); opacity: 0.5; isolation: isolate; transform-origin: 332.455px 207.59px 0px;" class="animable"></path>
        </g>
        <g id="ell8cp4tl59a">
            <rect x="231.84" y="196.4" width="59.51" height="40.73" style="opacity: 0.3; isolation: isolate; transform-origin: 261.595px 216.765px 0px;" class="animable"></rect>
        </g>
        <g id="el3tfest1rpjk">
            <polygon points="231.84 227.58 245.95 214.24 257.93 225.92 268.34 215.82 291.35 237.13 231.84 237.13 231.84 227.58" style="opacity: 0.3; isolation: isolate; transform-origin: 261.595px 225.685px 0px;" class="animable"></polygon>
        </g>
        <g id="elqlgrv6ujw79">
            <circle cx="280.76" cy="206.49" r="3.96" style="fill: rgb(255, 255, 255); opacity: 0.5; isolation: isolate; transform-origin: 280.76px 206.49px 0px;" class="animable"></circle>
        </g>
        <g id="el0tps6yto2jul">
            <rect x="225.88" y="247.73" width="161.29" height="51.5" style="fill: rgb(255, 255, 255); opacity: 0.4; isolation: isolate; transform-origin: 306.525px 273.48px 0px;" class="animable"></rect>
        </g>
        <g id="elphn1j9iwygn">
            <path d="M333.4,257.28H303.5a2.19,2.19,0,0,1-2.19-2.19h0a2.19,2.19,0,0,1,2.19-2.19h29.9a2.2,2.2,0,0,1,2.2,2.19h0A2.2,2.2,0,0,1,333.4,257.28Z" style="fill: rgb(255, 255, 255); opacity: 0.5; isolation: isolate; transform-origin: 318.455px 255.09px 0px;" class="animable"></path>
        </g>
        <g id="elh4crz6cabqs">
            <path d="M361.4,266.28H303.5a2.19,2.19,0,0,1-2.19-2.19h0a2.19,2.19,0,0,1,2.19-2.19h57.9a2.2,2.2,0,0,1,2.2,2.19h0A2.2,2.2,0,0,1,361.4,266.28Z" style="fill: rgb(255, 255, 255); opacity: 0.5; isolation: isolate; transform-origin: 332.455px 264.09px 0px;" class="animable"></path>
        </g>
        <g id="elputxeywq9j">
            <rect x="231.84" y="252.9" width="59.51" height="40.73" style="opacity: 0.3; isolation: isolate; transform-origin: 261.595px 273.265px 0px;" class="animable"></rect>
        </g>
        <g id="eldvmo3toaa57">
            <polygon points="231.84 284.08 245.95 270.74 257.93 282.42 268.34 272.32 291.35 293.63 231.84 293.63 231.84 284.08" style="opacity: 0.3; isolation: isolate; transform-origin: 261.595px 282.185px 0px;" class="animable"></polygon>
        </g>
        <g id="elriky46uvj8s">
            <circle cx="280.76" cy="262.99" r="3.96" style="fill: rgb(255, 255, 255); opacity: 0.5; isolation: isolate; transform-origin: 280.76px 262.99px 0px;" class="animable"></circle>
        </g>
        <g id="elf33tj9k9f1v">
            <rect x="225.88" y="304.23" width="161.29" height="51.5" style="fill: rgb(255, 255, 255); opacity: 0.4; isolation: isolate; transform-origin: 306.525px 329.98px 0px;" class="animable"></rect>
        </g>
        <g id="elhrvyecpulkc">
            <path d="M333.4,313.78H303.5a2.19,2.19,0,0,1-2.19-2.19h0a2.19,2.19,0,0,1,2.19-2.19h29.9a2.2,2.2,0,0,1,2.2,2.19h0A2.2,2.2,0,0,1,333.4,313.78Z" style="fill: rgb(255, 255, 255); opacity: 0.5; isolation: isolate; transform-origin: 318.455px 311.59px 0px;" class="animable"></path>
        </g>
        <g id="elrc893hlze9j">
            <path d="M361.4,322.78H303.5a2.19,2.19,0,0,1-2.19-2.19h0a2.19,2.19,0,0,1,2.19-2.19h57.9a2.2,2.2,0,0,1,2.2,2.19h0A2.2,2.2,0,0,1,361.4,322.78Z" style="fill: rgb(255, 255, 255); opacity: 0.5; isolation: isolate; transform-origin: 332.455px 320.59px 0px;" class="animable"></path>
        </g>
        <g id="elh125o3hvfwf">
            <rect x="231.84" y="309.4" width="59.51" height="40.73" style="opacity: 0.3; isolation: isolate; transform-origin: 261.595px 329.765px 0px;" class="animable"></rect>
        </g>
        <g id="elp8hdyquj7mj">
            <polygon points="231.84 340.58 245.95 327.24 257.93 338.92 268.34 328.82 291.35 350.13 231.84 350.13 231.84 340.58" style="opacity: 0.3; isolation: isolate; transform-origin: 261.595px 338.685px 0px;" class="animable"></polygon>
        </g>
        <g id="el4kocgco0d49">
            <circle cx="280.76" cy="319.49" r="3.96" style="fill: rgb(255, 255, 255); opacity: 0.5; isolation: isolate; transform-origin: 280.76px 319.49px 0px;" class="animable"></circle>
        </g>
        <g id="eld4oy2q0irch">
            <rect x="218.75" y="104.39" width="176" height="23.14" style="opacity: 0.3; isolation: isolate; transform-origin: 306.75px 115.96px 0px;" class="animable"></rect>
        </g>
        <polygon points="235.06 107.68 227.85 111.73 235.06 115.79 242.27 111.73 235.06 107.68" style="fill: rgb(255, 255, 255); transform-origin: 235.06px 111.735px 0px;" id="el15vadeq2hxq" class="animable"></polygon>
        <polygon points="235.06 117.42 230 114.58 227.85 115.79 235.06 119.85 242.27 115.79 240.12 114.58 235.06 117.42" style="fill: rgb(255, 255, 255); transform-origin: 235.06px 117.215px 0px;" id="el1h1ort3zfm5" class="animable"></polygon>
        <polygon points="235.06 121.48 230 118.64 227.85 119.85 235.06 123.9 242.27 119.85 240.12 118.64 235.06 121.48" style="fill: rgb(255, 255, 255); transform-origin: 235.06px 121.27px 0px;" id="el85nxim5h14u" class="animable"></polygon>
        <rect x="324.29" y="110.75" width="28.09" height="10.08" rx="2.36" style="fill: rgb(146, 227, 169); transform-origin: 338.335px 115.79px 0px;" id="el3081wnzplyy" class="animable"></rect>
        <rect x="358.29" y="110.75" width="28.09" height="10.08" rx="2.36" style="fill: rgb(146, 227, 169); transform-origin: 372.335px 115.79px 0px;" id="el5fa51hrtwxj" class="animable"></rect>
        <g id="elhztlhrsn5nq">
            <rect x="324.29" y="110.75" width="28.09" height="10.08" rx="2.36" style="fill: rgb(255, 255, 255); opacity: 0.2; isolation: isolate; transform-origin: 338.335px 115.79px 0px;" class="animable"></rect>
        </g>
        <g id="eldrep67p73sm">
            <rect x="358.29" y="110.75" width="28.09" height="10.08" rx="2.36" style="fill: rgb(255, 255, 255); opacity: 0.2; isolation: isolate; transform-origin: 372.335px 115.79px 0px;" class="animable"></rect>
        </g>
    </g>
    <g id="freepik--Character--inject-144" style="transform-origin: 155.62px 265.559px 0px;" class="animable">
        <g id="freepik--group--inject-144" style="transform-origin: 155.62px 265.559px 0px;" class="animable">
            <path d="M205.9,203.64c-5.14,2.07-9.49-3.08-9.69-9.21,0,0-4.69-3-10-6.26a139.24,139.24,0,0,0-12.35-6.92,4.6,4.6,0,0,1-1.75-1.43h0c-4.1-5.32-2.21-20.65-2.21-20.65,9.5,1.06,28.48,18.27,36.79,26.57S211,201.56,205.9,203.64Z" style="fill: rgb(146, 227, 169); transform-origin: 190.471px 181.638px 0px;" id="elv7ranwlw7u" class="animable"></path>
            <g id="elu6ws5wx9f3e">
                <path d="M186.21,188.17a139.24,139.24,0,0,0-12.35-6.92,4.6,4.6,0,0,1-1.75-1.43h0l6.64-5.91S184.68,181.62,186.21,188.17Z" style="opacity: 0.2; isolation: isolate; transform-origin: 179.16px 181.04px 0px;" class="animable"></path>
            </g>
            <polygon points="174.62 409.55 182.73 410.41 184.25 392.91 176.14 392.05 174.62 409.55" style="fill: rgb(228, 137, 123); transform-origin: 179.435px 401.23px 0px;" id="elgox6d3bvwmv" class="animable"></polygon>
            <polygon points="134.14 408.96 142 408.96 142.65 390.75 134.78 390.75 134.14 408.96" style="fill: rgb(228, 137, 123); transform-origin: 138.395px 399.855px 0px;" id="elo4r2613yy5" class="animable"></polygon>
            <path d="M143.09,408.05h-9.55a.69.69,0,0,0-.67.54l-1.55,7a1.16,1.16,0,0,0,.9,1.37,1,1,0,0,0,.25,0c3.09-.05,5.34-.24,9.22-.24,2.39,0,9.6.25,12.9.25s3.73-3.26,2.38-3.56c-6.06-1.32-10.62-3.15-12.56-4.89A1.89,1.89,0,0,0,143.09,408.05Z" style="fill: rgb(38, 50, 56); transform-origin: 144.491px 412.509px 0px;" id="ellmobsqj7g1p" class="animable"></path>
            <path d="M143.63,409.14a.19.19,0,0,1-.14-.16.17.17,0,0,1,.09-.18c.28-.18,2.82-1.74,3.69-1.29a.55.55,0,0,1,.32.52,1.09,1.09,0,0,1-.39,1,2.38,2.38,0,0,1-1.51.4A9.47,9.47,0,0,1,143.63,409.14Zm.54-.26a3.82,3.82,0,0,0,2.8-.14.77.77,0,0,0,.25-.67c0-.15-.07-.22-.12-.22a.4.4,0,0,0-.24-.05A7.5,7.5,0,0,0,144.17,408.88Z" style="fill: rgb(146, 227, 169); transform-origin: 145.544px 408.433px 0px;" id="elvcvi14gca4" class="animable"></path>
            <path d="M143.58,409.18a.2.2,0,0,1-.09-.17c0-.11.2-2.37,1.11-3.11a1,1,0,0,1,.79-.24.61.61,0,0,1,.6.49c.16.83-1.41,2.56-2.22,3h-.09A.17.17,0,0,1,143.58,409.18Zm1.26-3.06a4.41,4.41,0,0,0-.93,2.46c.81-.61,1.81-1.92,1.71-2.43,0,0,0-.19-.27-.19h-.09A.67.67,0,0,0,144.84,406.12Z" style="fill: rgb(146, 227, 169); transform-origin: 144.746px 407.416px 0px;" id="el33srd06kalx" class="animable"></path>
            <path d="M183.59,407.8H174a.69.69,0,0,0-.67.54l-1.55,7a1.16,1.16,0,0,0,.9,1.37,1,1,0,0,0,.25,0c3.09-.05,5.34-.24,9.22-.24,2.39,0,9.6.25,12.9.25s3.73-3.26,2.38-3.56c-6.06-1.32-10.62-3.15-12.56-4.89A1.89,1.89,0,0,0,183.59,407.8Z" style="fill: rgb(38, 50, 56); transform-origin: 184.951px 412.26px 0px;" id="eluxah1pzw8s" class="animable"></path>
            <path d="M184.13,408.89a.19.19,0,0,1-.14-.16.17.17,0,0,1,.09-.18c.28-.18,2.82-1.74,3.69-1.29a.55.55,0,0,1,.32.52,1.09,1.09,0,0,1-.39,1,2.38,2.38,0,0,1-1.51.4A9.47,9.47,0,0,1,184.13,408.89Zm.54-.26a3.82,3.82,0,0,0,2.8-.14.77.77,0,0,0,.25-.67c0-.15-.07-.22-.12-.22a.4.4,0,0,0-.24-.05A7.5,7.5,0,0,0,184.67,408.63Z" style="fill: rgb(146, 227, 169); transform-origin: 186.044px 408.183px 0px;" id="elhgdolu7jnz9" class="animable"></path>
            <path d="M184.08,408.93a.2.2,0,0,1-.09-.17c0-.11.2-2.37,1.11-3.11a1,1,0,0,1,.79-.24.61.61,0,0,1,.6.49c.16.83-1.41,2.56-2.22,3h-.09A.17.17,0,0,1,184.08,408.93Zm1.26-3.06a4.41,4.41,0,0,0-.93,2.46c.81-.61,1.81-1.92,1.71-2.43,0,0,0-.19-.27-.19h-.09A.67.67,0,0,0,185.34,405.87Z" style="fill: rgb(146, 227, 169); transform-origin: 185.246px 407.166px 0px;" id="elyhabhgz6nb" class="animable"></path>
            <g id="el20g785i3ucc">
                <polygon points="176.14 392.05 184.25 392.91 183.46 401.94 175.35 401.08 176.14 392.05" style="opacity: 0.2; isolation: isolate; transform-origin: 179.8px 396.995px 0px;" class="animable"></polygon>
            </g>
            <g id="elnnnf004y2qp">
                <polygon points="134.78 390.76 142.65 390.76 142.31 400.15 134.44 400.15 134.78 390.76" style="opacity: 0.2; isolation: isolate; transform-origin: 138.545px 395.455px 0px;" class="animable"></polygon>
            </g>
            <path d="M138,231h41.72c4,21.67,16.38,98.33,7.48,166.63L173.1,395.9s1.31-90.68-11.16-124.2c-1.44,17.94-3.14,37-4.62,47.19-3.63,25-11.4,79.63-11.4,79.63H131.54s2.94-52.29,4.3-76.86C137.33,295,138,236.5,138,231Z" style="fill: rgb(38, 50, 56); transform-origin: 160.945px 314.76px 0px;" id="el7n45nwoti3s" class="animable"></path>
            <g id="el5762cl19ef6">
                <path d="M131.54,398.52h14.38s7.77-54.64,11.4-79.64c1.48-10.15,3.18-29.24,4.62-47.18a111.8,111.8,0,0,1,4.66,18.05c7.45,40.21,6.5,106.15,6.5,106.15l14.12,2c8.91-68.31-3.5-145.38-7.47-166.38H138c-.06,5-.7,63.71-2.19,90.38C134.48,346.47,131.54,398.52,131.54,398.52Z" style="fill: rgb(255, 255, 255); opacity: 0.2; isolation: isolate; transform-origin: 160.955px 315.02px 0px;" class="animable"></path>
            </g>
            <polygon points="188.84 400.94 171.36 398.34 171.89 393.5 190.08 395.89 188.84 400.94" style="fill: rgb(146, 227, 169); transform-origin: 180.72px 397.22px 0px;" id="ele37wo74z7ds" class="animable"></polygon>
            <polygon points="147.65 398.64 130.69 398.64 130.69 393.57 148.29 393.24 147.65 398.64" style="fill: rgb(146, 227, 169); transform-origin: 139.49px 395.94px 0px;" id="elxh124aeuex" class="animable"></polygon>
            <g id="eldldrigcccor">
                <path d="M161.94,271.7a111.8,111.8,0,0,1,4.66,18.05c1.17-16-3.5-32.89-3.5-32.89Z" style="opacity: 0.2; isolation: isolate; transform-origin: 164.364px 273.305px 0px;" class="animable"></path>
            </g>
            <path d="M115.33,211.58s19.45,18.06,21.29,19.94,1.72,15.33,0,15.93-7.27,1.58-7.47,0,.4-10.29.4-10.29l1.25-1.78L109.37,220Z" style="fill: rgb(228, 137, 123); transform-origin: 123.663px 229.943px 0px;" id="elz5z9pjyvmf" class="animable"></path>
            <path d="M130.8,162.53C117.09,165,97.38,190.44,100,207.19c1.71,11.18,13,17.31,13,17.31l9.12-9.52s-5.77-5.08-6.92-8.3c-3.43-9.59,9.09-24.31,19.37-27.34l2.12-8.57Z" style="fill: rgb(146, 227, 169); transform-origin: 118.227px 193.515px 0px;" id="elftrjs90qsyr" class="animable"></path>
            <path d="M130.8,162.53a176.11,176.11,0,0,1,5,25.87c.33,2.68.6,5.31.82,7.86.29,3.24.49,6.36.65,9.32.2,3.75.26,8.18.25,12.54,0,10-.42,19.65-.42,19.65,8,2,31.12.67,43.75-.25A201,201,0,0,0,182,201.11a208,208,0,0,0-2.65-23.93,102.87,102.87,0,0,0-2.82-12.52,8,8,0,0,0-6.64-5.51c-1.53-.19-3.3-.38-5.16-.49-.72,0-1.44-.07-2.17-.08a154.22,154.22,0,0,0-17.84,1.24c-1.12.13-2.26.3-3.36.48A102.46,102.46,0,0,0,130.8,162.53Z" style="fill: rgb(146, 227, 169); transform-origin: 156.576px 198.696px 0px;" id="eleqeajsmou1" class="animable"></path>
            <g id="el5sttd0y4tac">
                <path d="M180.85,237.53c-12.63.92-35.75,2.25-43.75.25,0,0,.4-9.63.42-19.65,0-4.36-.05-8.79-.25-12.54-.16-3-.36-6.08-.65-9.32-.22-2.55-.49-5.18-.82-7.86-.08-.72-.17-1.45-.27-2.17-.29-2.31-.64-4.61-1-6.9l0-.06,3.89-5.6,7.73-11.14s12.86,5.2,18.2-2.22a86.41,86.41,0,0,1,14.39,13.58c.21,1,.41,2.14.61,3.29A208,208,0,0,1,182,201.12,201,201,0,0,1,180.85,237.53Z" style="fill: rgb(255, 255, 255); opacity: 0.7; isolation: isolate; transform-origin: 158.441px 199.571px 0px;" class="animable"></path>
            </g>
            <path d="M168.1,124.94s1.33,8.92-4.42,13.08-5.75-16-5.75-16Z" style="fill: rgb(38, 50, 56); transform-origin: 163.082px 130.303px 0px;" id="el0nfutowozogk" class="animable"></path>
            <path d="M144.72,159.77c3.83,3.48,13.21,2.2,13.21,2.2s5.86-1.61,4.63-3.44c-3.45-.57-5.12-2.18-5.81-4.24a10,10,0,0,1-.35-3.94,20.71,20.71,0,0,1,.29-2.2l-11.6-8.59C146.61,145.23,148.47,155.66,144.72,159.77Z" style="fill: rgb(228, 137, 123); transform-origin: 153.725px 150.88px 0px;" id="ela7fzxcynvou" class="animable"></path>
            <g id="elxxei51z2sn">
                <path d="M147.77,145c.46,7,6.18,8.88,9,9.27a10,10,0,0,1-.35-3.94Z" style="opacity: 0.2; isolation: isolate; transform-origin: 152.27px 149.635px 0px;" class="animable"></path>
            </g>
            <path d="M147,146.63a9.83,9.83,0,0,0,11.29,3.81,11,11,0,0,0,6.25-5.09,11.2,11.2,0,0,0,.52-1c2.83-6.62,3.73-18.2-3.27-22.54a10.66,10.66,0,0,0-16.28,8C144.64,137.54,143.77,142.05,147,146.63Z" style="fill: rgb(228, 137, 123); transform-origin: 155.937px 135.567px 0px;" id="elsp8yu3xdw" class="animable"></path>
            <path d="M156.78,133.94c-.15.61.14,1.18.55,1.25s.83-.38.94-1-.15-1.19-.55-1.26S156.9,133.31,156.78,133.94Z" style="fill: rgb(38, 50, 56); transform-origin: 157.518px 134.06px 0px;" id="elkknfmf90tqr" class="animable"></path>
            <path d="M163.85,135.14c-.15.62.14,1.19.55,1.26s.82-.39.93-1-.14-1.18-.55-1.25S164,134.55,163.85,135.14Z" style="fill: rgb(38, 50, 56); transform-origin: 164.583px 135.275px 0px;" id="elcrwuk1pna4s" class="animable"></path>
            <path d="M161.55,135.07a23,23,0,0,0,2.07,5.86,3.65,3.65,0,0,1-3.1,0Z" style="fill: rgb(222, 87, 83); transform-origin: 162.07px 138.173px 0px;" id="elrdr5pw6az6" class="animable"></path>
            <path d="M155,131.28a.38.38,0,0,0,.38-.09,3,3,0,0,1,2.56-.82.38.38,0,0,0,.45-.27.37.37,0,0,0-.27-.45h0a3.69,3.69,0,0,0-3.24,1,.36.36,0,0,0,0,.52h0Z" style="fill: rgb(38, 50, 56); transform-origin: 156.585px 130.445px 0px;" id="elzgrsw2huxl" class="animable"></path>
            <path d="M159,144h0a5.72,5.72,0,0,1-4.63-2.52.19.19,0,0,1,.07-.27.19.19,0,0,1,.26.05v0a5.46,5.46,0,0,0,4.31,2.32.19.19,0,0,1,.19.19v0a.2.2,0,0,1-.19.19Z" style="fill: rgb(38, 50, 56); transform-origin: 156.77px 142.589px 0px;" id="el5fi3zj0q4rv" class="animable"></path>
            <path d="M167.3,133.23a.38.38,0,0,0,.21.05.37.37,0,0,0,.26-.46h0a3.71,3.71,0,0,0-2.29-2.52.37.37,0,0,0-.46.25h0a.37.37,0,0,0,.25.46h0a3,3,0,0,1,1.78,2A.39.39,0,0,0,167.3,133.23Z" style="fill: rgb(38, 50, 56); transform-origin: 166.395px 131.783px 0px;" id="el53kdkouw69f" class="animable"></path>
            <path d="M157,117.37c-.93-.13-1.85-.24-2.78-.28a13.78,13.78,0,0,0-7.75,1.55c-5.35,3.17-4.43,11.29-3.74,16.55.92,7,3.67,10.17,3.67,10.17-1.67-3.34-1.17-9.84-.08-10s1,1.08,1,1.08c2.41-1.5,4.58-5.75,3.83-8.75-.57-2.3,2-4,4.17-2.92l.65.32c.32.16.67.32,1,.48Z" style="fill: rgb(38, 50, 56); transform-origin: 149.599px 131.195px 0px;" id="el1yysb0pyffh" class="animable"></path>
            <path d="M141.07,135.52a7.42,7.42,0,0,0,3.56,4.41c2.29,1.23,4-.68,3.84-3.14-.16-2.18-1.51-5.52-4.05-5.71S140.42,133.21,141.07,135.52Z" style="fill: rgb(228, 137, 123); transform-origin: 144.698px 135.691px 0px;" id="elnq4yifftyuk" class="animable"></path>
            <path d="M160,124c-.5.89.76,3.76-2.11,3.06s-3.07.54-5.11,2.51-6.16-1-6.16-1l-4.51.59s-3.29-3-1.23-4.55,2.51-3.86,3.78-6.53,6.86-6.13,12.82-2.07c0,0,3.16-1.09,4.55-.3a8.39,8.39,0,0,1,2.51,2.87,2.13,2.13,0,0,1,3.21-.1c1.62,1.68.33,7.71,1.72,9.2s-1.72,3.38-1.72,3.38-2.43-.58-2.43-2.36c0-3.17-.47-4.3-2-4.88a1.45,1.45,0,0,0-1.61.49S160.85,122.61,160,124Z" style="fill: rgb(38, 50, 56); transform-origin: 155.015px 122.604px 0px;" id="elfvmlkxlsxi9" class="animable"></path>
            <g id="elten9qm01zxl">
                <path d="M135.53,186.24c-.29-2.31-.64-4.61-1-6.9l0-.06c.34-.57,3.13-5.24,3.41-8.58a20.2,20.2,0,0,1,.48,3C138.72,176.87,138.58,182.05,135.53,186.24Z" style="opacity: 0.2; isolation: isolate; transform-origin: 136.529px 178.47px 0px;" class="animable"></path>
            </g>
            <path d="M149.83,178.93l1,8a2.19,2.19,0,0,0,2.26,1.93l16.76-.64a2.19,2.19,0,0,0,2.1-2.37l-.66-8.13a2.2,2.2,0,0,0-2.28-2l-17.07.73A2.2,2.2,0,0,0,149.83,178.93Z" style="fill: rgb(146, 227, 169); transform-origin: 160.885px 182.29px 0px;" id="eljqfhaybnijl" class="animable"></path>
            <g id="elac0wz6u6sa8">
                <polygon points="157.93 179.48 165 181.79 158.29 185.15 160.11 182.32 157.93 179.48" style="fill: rgb(255, 255, 255); opacity: 0.7; isolation: isolate; transform-origin: 161.465px 182.315px 0px;" class="animable"></polygon>
            </g>
            <path d="M172.21,174.62l4.51-18a1.57,1.57,0,0,1,1.52-1.19h9.46a.91.91,0,0,1,.88,1.13l-4.41,17.95a1.56,1.56,0,0,1-1.52,1.19h-9.56A.91.91,0,0,1,172.21,174.62Z" style="fill: rgb(38, 50, 56); transform-origin: 180.401px 165.565px 0px;" id="elzxfpxz8dwsi" class="animable"></path>
            <g id="elua29de9q6vk">
                <path d="M181.32,162.53a2.49,2.49,0,0,0-2.08,2c-.28,1.1.21,2,1.1,2a2.51,2.51,0,0,0,2.09-2C182.7,163.42,182.21,162.53,181.32,162.53Z" style="fill: rgb(255, 255, 255); opacity: 0.3; isolation: isolate; transform-origin: 180.833px 164.53px 0px;" class="animable"></path>
            </g>
            <path d="M206.39,192.42S195.14,174.05,192,171.24s-15-4.87-15.39-5-2.9,10.44-1.78,11.35,11.54,1.93,12.22,1.65,1.84-.73,1.84-.73L199,198.37S204.8,198,206.39,192.42Z" style="fill: rgb(228, 137, 123); transform-origin: 190.467px 182.304px 0px;" id="eln4l6azazk0e" class="animable"></path>
        </g>
    </g>
    <defs>
        <filter id="active" height="200%">
            <feMorphology in="SourceAlpha" result="DILATED" operator="dilate" radius="2"></feMorphology>
            <feFlood flood-color="#32DFEC" flood-opacity="1" result="PINK"></feFlood>
            <feComposite in="PINK" in2="DILATED" operator="in" result="OUTLINE"></feComposite>
            <feMerge>
                <feMergeNode in="OUTLINE"></feMergeNode>
                <feMergeNode in="SourceGraphic"></feMergeNode>
            </feMerge>
        </filter>
        <filter id="hover" height="200%">
            <feMorphology in="SourceAlpha" result="DILATED" operator="dilate" radius="2"></feMorphology>
            <feFlood flood-color="#ff0000" flood-opacity="0.5" result="PINK"></feFlood>
            <feComposite in="PINK" in2="DILATED" operator="in" result="OUTLINE"></feComposite>
            <feMerge>
                <feMergeNode in="OUTLINE"></feMergeNode>
                <feMergeNode in="SourceGraphic"></feMergeNode>
            </feMerge>
            <feColorMatrix type="matrix" values="0   0   0   0   0                0   1   0   0   0                0   0   0   0   0                0   0   0   1   0 "></feColorMatrix>
        </filter>
    </defs>
</svg>